<svg width="17" height="18" viewBox="0 0 17 18" fill="none" xmlns="http://www.w3.org/2000/svg">
<g clip-path="url(#clip0_1_476)">
<path d="M0.000269969 8.99032C-0.0067468 10.7533 1.41679 12.1882 3.17983 12.1952C3.99178 12.1985 4.77447 11.8922 5.36855 11.3387L10.1257 13.4866C10.0926 13.6644 10.0745 13.8447 10.0715 14.0256C10.0659 15.8008 11.5003 17.2444 13.2755 17.25C15.0507 17.2556 16.4943 15.8211 16.4999 14.0459C16.5056 12.2708 15.071 10.8272 13.2959 10.8215C12.2353 10.8182 11.2413 11.3382 10.6393 12.2114L6.16988 10.1933C6.48734 9.42678 6.48856 8.56574 6.17332 7.79828L10.6366 5.76988C11.6416 7.22348 13.6348 7.58707 15.0884 6.58203C16.542 5.57699 16.9055 3.5839 15.9005 2.1303C14.8954 0.676706 12.9023 0.313121 11.4487 1.31816C10.583 1.91671 10.0671 2.90263 10.0687 3.95508C10.0716 4.13623 10.09 4.31677 10.1236 4.49479L5.37885 6.65087C4.09333 5.44376 2.07266 5.50733 0.865554 6.79285C0.306884 7.38786 -0.00275561 8.17416 0.000269969 8.99032Z" fill="#5A5A5A"/>
</g>
<defs>
<clipPath id="clip0_1_476">
<rect width="16.5" height="16.5" fill="white" transform="translate(0 0.75)"/>
</clipPath>
</defs>
</svg>
